<mxfile host="Electron" agent="Mozilla/5.0 (Windows NT 10.0; Win64; x64) AppleWebKit/537.36 (KHTML, like Gecko) draw.io/24.7.17 Chrome/128.0.6613.36 Electron/32.0.1 Safari/537.36" version="24.7.17">
  <diagram name="Сторінка-1" id="bu2CtMf5ZtMdZUl8b02X">
    <mxGraphModel dx="2417" dy="1095" grid="1" gridSize="10" guides="1" tooltips="1" connect="1" arrows="1" fold="1" page="1" pageScale="1" pageWidth="827" pageHeight="1169" math="0" shadow="0">
      <root>
        <mxCell id="0" />
        <mxCell id="1" parent="0" />
        <mxCell id="9NQPT6Tn5agZw1AdoDWG-3" value="" style="edgeStyle=orthogonalEdgeStyle;rounded=0;orthogonalLoop=1;jettySize=auto;html=1;" parent="1" source="9NQPT6Tn5agZw1AdoDWG-1" target="9NQPT6Tn5agZw1AdoDWG-2" edge="1">
          <mxGeometry relative="1" as="geometry" />
        </mxCell>
        <mxCell id="9NQPT6Tn5agZw1AdoDWG-1" value="&lt;font style=&quot;font-size: 20px;&quot;&gt;start&lt;/font&gt;" style="ellipse;whiteSpace=wrap;html=1;" parent="1" vertex="1">
          <mxGeometry x="180" y="50" width="160" height="80" as="geometry" />
        </mxCell>
        <mxCell id="9NQPT6Tn5agZw1AdoDWG-5" value="" style="edgeStyle=orthogonalEdgeStyle;rounded=0;orthogonalLoop=1;jettySize=auto;html=1;" parent="1" source="9NQPT6Tn5agZw1AdoDWG-2" target="9NQPT6Tn5agZw1AdoDWG-4" edge="1">
          <mxGeometry relative="1" as="geometry" />
        </mxCell>
        <mxCell id="9NQPT6Tn5agZw1AdoDWG-2" value="&lt;font style=&quot;font-size: 20px;&quot;&gt;int N,M&lt;/font&gt;" style="whiteSpace=wrap;html=1;" parent="1" vertex="1">
          <mxGeometry x="200" y="220" width="120" height="60" as="geometry" />
        </mxCell>
        <mxCell id="9NQPT6Tn5agZw1AdoDWG-7" value="" style="edgeStyle=orthogonalEdgeStyle;rounded=0;orthogonalLoop=1;jettySize=auto;html=1;" parent="1" source="9NQPT6Tn5agZw1AdoDWG-4" target="9NQPT6Tn5agZw1AdoDWG-6" edge="1">
          <mxGeometry relative="1" as="geometry" />
        </mxCell>
        <mxCell id="9NQPT6Tn5agZw1AdoDWG-4" value="&lt;font style=&quot;font-size: 20px;&quot;&gt;cin &amp;gt;&amp;gt; N &amp;gt;&amp;gt; M&lt;/font&gt;" style="shape=parallelogram;perimeter=parallelogramPerimeter;whiteSpace=wrap;html=1;fixedSize=1;" parent="1" vertex="1">
          <mxGeometry x="175" y="360" width="170" height="60" as="geometry" />
        </mxCell>
        <mxCell id="9NQPT6Tn5agZw1AdoDWG-9" value="" style="edgeStyle=orthogonalEdgeStyle;rounded=0;orthogonalLoop=1;jettySize=auto;html=1;" parent="1" source="9NQPT6Tn5agZw1AdoDWG-6" target="9NQPT6Tn5agZw1AdoDWG-8" edge="1">
          <mxGeometry relative="1" as="geometry" />
        </mxCell>
        <mxCell id="9NQPT6Tn5agZw1AdoDWG-6" value="&lt;font style=&quot;font-size: 20px;&quot;&gt;char cave[1000][1000]&lt;/font&gt;" style="whiteSpace=wrap;html=1;" parent="1" vertex="1">
          <mxGeometry x="150" y="510" width="220" height="60" as="geometry" />
        </mxCell>
        <mxCell id="9NQPT6Tn5agZw1AdoDWG-11" value="" style="edgeStyle=orthogonalEdgeStyle;rounded=0;orthogonalLoop=1;jettySize=auto;html=1;" parent="1" source="9NQPT6Tn5agZw1AdoDWG-8" target="9NQPT6Tn5agZw1AdoDWG-10" edge="1">
          <mxGeometry relative="1" as="geometry" />
        </mxCell>
        <mxCell id="9NQPT6Tn5agZw1AdoDWG-21" value="" style="edgeStyle=orthogonalEdgeStyle;rounded=0;orthogonalLoop=1;jettySize=auto;html=1;" parent="1" source="9NQPT6Tn5agZw1AdoDWG-8" target="9NQPT6Tn5agZw1AdoDWG-20" edge="1">
          <mxGeometry relative="1" as="geometry" />
        </mxCell>
        <mxCell id="9NQPT6Tn5agZw1AdoDWG-8" value="&lt;font style=&quot;font-size: 20px;&quot;&gt;int i =0;i&amp;lt;N&lt;/font&gt;" style="rhombus;whiteSpace=wrap;html=1;" parent="1" vertex="1">
          <mxGeometry x="180" y="640" width="160" height="80" as="geometry" />
        </mxCell>
        <mxCell id="9NQPT6Tn5agZw1AdoDWG-13" value="" style="edgeStyle=orthogonalEdgeStyle;rounded=0;orthogonalLoop=1;jettySize=auto;html=1;" parent="1" source="9NQPT6Tn5agZw1AdoDWG-10" target="9NQPT6Tn5agZw1AdoDWG-12" edge="1">
          <mxGeometry relative="1" as="geometry" />
        </mxCell>
        <mxCell id="9NQPT6Tn5agZw1AdoDWG-18" value="" style="edgeStyle=orthogonalEdgeStyle;rounded=0;orthogonalLoop=1;jettySize=auto;html=1;" parent="1" source="9NQPT6Tn5agZw1AdoDWG-10" target="9NQPT6Tn5agZw1AdoDWG-17" edge="1">
          <mxGeometry relative="1" as="geometry" />
        </mxCell>
        <mxCell id="9NQPT6Tn5agZw1AdoDWG-10" value="&lt;font style=&quot;font-size: 20px;&quot;&gt;int j =0;j&amp;lt;M&lt;/font&gt;" style="rhombus;whiteSpace=wrap;html=1;" parent="1" vertex="1">
          <mxGeometry x="180" y="800" width="160" height="80" as="geometry" />
        </mxCell>
        <mxCell id="9NQPT6Tn5agZw1AdoDWG-15" value="" style="edgeStyle=orthogonalEdgeStyle;rounded=0;orthogonalLoop=1;jettySize=auto;html=1;" parent="1" source="9NQPT6Tn5agZw1AdoDWG-12" target="9NQPT6Tn5agZw1AdoDWG-14" edge="1">
          <mxGeometry relative="1" as="geometry" />
        </mxCell>
        <mxCell id="9NQPT6Tn5agZw1AdoDWG-12" value="&lt;font style=&quot;font-size: 20px;&quot;&gt;cin &amp;gt;&amp;gt; cave[i][j]&lt;/font&gt;" style="shape=parallelogram;perimeter=parallelogramPerimeter;whiteSpace=wrap;html=1;fixedSize=1;" parent="1" vertex="1">
          <mxGeometry x="170" y="970" width="180" height="60" as="geometry" />
        </mxCell>
        <mxCell id="9NQPT6Tn5agZw1AdoDWG-16" value="-" style="edgeStyle=orthogonalEdgeStyle;rounded=0;orthogonalLoop=1;jettySize=auto;html=1;exitX=1;exitY=0.5;exitDx=0;exitDy=0;" parent="1" source="9NQPT6Tn5agZw1AdoDWG-14" edge="1">
          <mxGeometry relative="1" as="geometry">
            <mxPoint x="260" y="760" as="targetPoint" />
            <Array as="points">
              <mxPoint x="390" y="1139" />
              <mxPoint x="390" y="760" />
            </Array>
          </mxGeometry>
        </mxCell>
        <mxCell id="9NQPT6Tn5agZw1AdoDWG-14" value="&lt;font style=&quot;font-size: 20px;&quot;&gt;j++&lt;/font&gt;" style="whiteSpace=wrap;html=1;" parent="1" vertex="1">
          <mxGeometry x="200" y="1109" width="120" height="60" as="geometry" />
        </mxCell>
        <mxCell id="9NQPT6Tn5agZw1AdoDWG-19" style="edgeStyle=orthogonalEdgeStyle;rounded=0;orthogonalLoop=1;jettySize=auto;html=1;exitX=0.5;exitY=0;exitDx=0;exitDy=0;" parent="1" source="9NQPT6Tn5agZw1AdoDWG-17" edge="1">
          <mxGeometry relative="1" as="geometry">
            <mxPoint x="260" y="610" as="targetPoint" />
            <Array as="points">
              <mxPoint x="20" y="610" />
            </Array>
          </mxGeometry>
        </mxCell>
        <mxCell id="9NQPT6Tn5agZw1AdoDWG-17" value="&lt;font style=&quot;font-size: 20px;&quot;&gt;i++&lt;/font&gt;" style="whiteSpace=wrap;html=1;" parent="1" vertex="1">
          <mxGeometry x="-40" y="810" width="120" height="60" as="geometry" />
        </mxCell>
        <mxCell id="9NQPT6Tn5agZw1AdoDWG-33" style="edgeStyle=orthogonalEdgeStyle;rounded=0;orthogonalLoop=1;jettySize=auto;html=1;entryX=0.5;entryY=0;entryDx=0;entryDy=0;exitX=0.5;exitY=1;exitDx=0;exitDy=0;" parent="1" source="9NQPT6Tn5agZw1AdoDWG-20" edge="1">
          <mxGeometry relative="1" as="geometry">
            <mxPoint x="766.5555555555557" y="710" as="sourcePoint" />
            <mxPoint x="779" y="918" as="targetPoint" />
          </mxGeometry>
        </mxCell>
        <mxCell id="9NQPT6Tn5agZw1AdoDWG-20" value="&lt;font style=&quot;font-size: 20px;&quot;&gt;simulateEarthquake(cave,N,M)&lt;/font&gt;" style="shape=process;whiteSpace=wrap;html=1;backgroundOutline=1;" parent="1" vertex="1">
          <mxGeometry x="598" y="730" width="363" height="60" as="geometry" />
        </mxCell>
        <mxCell id="9NQPT6Tn5agZw1AdoDWG-22" value="" style="edgeStyle=orthogonalEdgeStyle;rounded=0;orthogonalLoop=1;jettySize=auto;html=1;" parent="1" source="9NQPT6Tn5agZw1AdoDWG-23" target="9NQPT6Tn5agZw1AdoDWG-26" edge="1">
          <mxGeometry relative="1" as="geometry" />
        </mxCell>
        <mxCell id="9NQPT6Tn5agZw1AdoDWG-23" value="&lt;font style=&quot;font-size: 20px;&quot;&gt;int i =0;i&amp;lt;N&lt;/font&gt;" style="rhombus;whiteSpace=wrap;html=1;" parent="1" vertex="1">
          <mxGeometry x="698" y="918" width="160" height="80" as="geometry" />
        </mxCell>
        <mxCell id="9NQPT6Tn5agZw1AdoDWG-24" value="" style="edgeStyle=orthogonalEdgeStyle;rounded=0;orthogonalLoop=1;jettySize=auto;html=1;" parent="1" source="9NQPT6Tn5agZw1AdoDWG-26" target="9NQPT6Tn5agZw1AdoDWG-28" edge="1">
          <mxGeometry relative="1" as="geometry" />
        </mxCell>
        <mxCell id="9NQPT6Tn5agZw1AdoDWG-25" value="" style="edgeStyle=orthogonalEdgeStyle;rounded=0;orthogonalLoop=1;jettySize=auto;html=1;" parent="1" source="9NQPT6Tn5agZw1AdoDWG-26" target="9NQPT6Tn5agZw1AdoDWG-32" edge="1">
          <mxGeometry relative="1" as="geometry" />
        </mxCell>
        <mxCell id="9NQPT6Tn5agZw1AdoDWG-26" value="&lt;font style=&quot;font-size: 20px;&quot;&gt;int j =0;j&amp;lt;M&lt;/font&gt;" style="rhombus;whiteSpace=wrap;html=1;" parent="1" vertex="1">
          <mxGeometry x="698" y="1078" width="160" height="80" as="geometry" />
        </mxCell>
        <mxCell id="9NQPT6Tn5agZw1AdoDWG-27" value="" style="edgeStyle=orthogonalEdgeStyle;rounded=0;orthogonalLoop=1;jettySize=auto;html=1;" parent="1" source="9NQPT6Tn5agZw1AdoDWG-28" target="9NQPT6Tn5agZw1AdoDWG-30" edge="1">
          <mxGeometry relative="1" as="geometry" />
        </mxCell>
        <mxCell id="9NQPT6Tn5agZw1AdoDWG-28" value="&lt;font style=&quot;font-size: 20px;&quot;&gt;cout &amp;lt;&amp;lt; cave[i][j]&lt;/font&gt;" style="shape=parallelogram;perimeter=parallelogramPerimeter;whiteSpace=wrap;html=1;fixedSize=1;" parent="1" vertex="1">
          <mxGeometry x="688" y="1248" width="180" height="60" as="geometry" />
        </mxCell>
        <mxCell id="9NQPT6Tn5agZw1AdoDWG-30" value="&lt;font style=&quot;font-size: 20px;&quot;&gt;j++&lt;/font&gt;" style="whiteSpace=wrap;html=1;" parent="1" vertex="1">
          <mxGeometry x="718" y="1387" width="120" height="60" as="geometry" />
        </mxCell>
        <mxCell id="9NQPT6Tn5agZw1AdoDWG-31" style="edgeStyle=orthogonalEdgeStyle;rounded=0;orthogonalLoop=1;jettySize=auto;html=1;exitX=0.5;exitY=0;exitDx=0;exitDy=0;" parent="1" source="9NQPT6Tn5agZw1AdoDWG-32" edge="1">
          <mxGeometry relative="1" as="geometry">
            <mxPoint x="778" y="888" as="targetPoint" />
            <Array as="points">
              <mxPoint x="538" y="888" />
            </Array>
          </mxGeometry>
        </mxCell>
        <mxCell id="9NQPT6Tn5agZw1AdoDWG-32" value="&lt;font style=&quot;font-size: 20px;&quot;&gt;i++&lt;/font&gt;" style="whiteSpace=wrap;html=1;" parent="1" vertex="1">
          <mxGeometry x="478" y="1088" width="120" height="60" as="geometry" />
        </mxCell>
        <mxCell id="9NQPT6Tn5agZw1AdoDWG-40" value="" style="edgeStyle=orthogonalEdgeStyle;rounded=0;orthogonalLoop=1;jettySize=auto;html=1;" parent="1" source="9NQPT6Tn5agZw1AdoDWG-36" target="9NQPT6Tn5agZw1AdoDWG-39" edge="1">
          <mxGeometry relative="1" as="geometry" />
        </mxCell>
        <mxCell id="9NQPT6Tn5agZw1AdoDWG-36" value="&lt;span style=&quot;font-size: 20px;&quot;&gt;simulateEarthquake(char cave[][1000], int N, int&amp;nbsp;M)&lt;/span&gt;" style="ellipse;whiteSpace=wrap;html=1;" parent="1" vertex="1">
          <mxGeometry x="1390" y="140" width="540" height="50" as="geometry" />
        </mxCell>
        <mxCell id="xgQZyTyEGcFYFxI-PwQ1-2" value="" style="edgeStyle=orthogonalEdgeStyle;rounded=0;orthogonalLoop=1;jettySize=auto;html=1;" edge="1" parent="1" source="9NQPT6Tn5agZw1AdoDWG-39" target="xgQZyTyEGcFYFxI-PwQ1-1">
          <mxGeometry relative="1" as="geometry" />
        </mxCell>
        <mxCell id="9NQPT6Tn5agZw1AdoDWG-39" value="&lt;font style=&quot;font-size: 20px;&quot;&gt;int col =0; col&amp;lt;M&lt;/font&gt;" style="rhombus;whiteSpace=wrap;html=1;" parent="1" vertex="1">
          <mxGeometry x="1560" y="272" width="200" height="88" as="geometry" />
        </mxCell>
        <mxCell id="xgQZyTyEGcFYFxI-PwQ1-4" value="" style="edgeStyle=orthogonalEdgeStyle;rounded=0;orthogonalLoop=1;jettySize=auto;html=1;" edge="1" parent="1" source="xgQZyTyEGcFYFxI-PwQ1-1" target="xgQZyTyEGcFYFxI-PwQ1-7">
          <mxGeometry relative="1" as="geometry">
            <mxPoint x="1659.666666666667" y="584.0284292821605" as="targetPoint" />
          </mxGeometry>
        </mxCell>
        <mxCell id="xgQZyTyEGcFYFxI-PwQ1-1" value="&lt;font style=&quot;font-size: 20px;&quot;&gt;int emptyRow=N-1&lt;/font&gt;" style="whiteSpace=wrap;html=1;" vertex="1" parent="1">
          <mxGeometry x="1568" y="506" width="185" height="60" as="geometry" />
        </mxCell>
        <mxCell id="xgQZyTyEGcFYFxI-PwQ1-8" value="" style="edgeStyle=orthogonalEdgeStyle;rounded=0;orthogonalLoop=1;jettySize=auto;html=1;" edge="1" parent="1" target="xgQZyTyEGcFYFxI-PwQ1-7">
          <mxGeometry relative="1" as="geometry">
            <mxPoint x="1659.7499999999995" y="664.0000000000002" as="sourcePoint" />
          </mxGeometry>
        </mxCell>
        <mxCell id="xgQZyTyEGcFYFxI-PwQ1-12" value="" style="edgeStyle=orthogonalEdgeStyle;rounded=0;orthogonalLoop=1;jettySize=auto;html=1;" edge="1" parent="1" source="xgQZyTyEGcFYFxI-PwQ1-7" target="xgQZyTyEGcFYFxI-PwQ1-11">
          <mxGeometry relative="1" as="geometry" />
        </mxCell>
        <mxCell id="xgQZyTyEGcFYFxI-PwQ1-31" value="" style="edgeStyle=orthogonalEdgeStyle;rounded=0;orthogonalLoop=1;jettySize=auto;html=1;" edge="1" parent="1" source="xgQZyTyEGcFYFxI-PwQ1-7" target="xgQZyTyEGcFYFxI-PwQ1-30">
          <mxGeometry relative="1" as="geometry" />
        </mxCell>
        <mxCell id="xgQZyTyEGcFYFxI-PwQ1-7" value="&lt;font style=&quot;font-size: 20px;&quot;&gt;int row=N-1; row&amp;gt;=0&lt;/font&gt;" style="rhombus;whiteSpace=wrap;html=1;" vertex="1" parent="1">
          <mxGeometry x="1542.5" y="744" width="234.5" height="80" as="geometry" />
        </mxCell>
        <mxCell id="xgQZyTyEGcFYFxI-PwQ1-14" value="" style="edgeStyle=orthogonalEdgeStyle;rounded=0;orthogonalLoop=1;jettySize=auto;html=1;" edge="1" parent="1" source="xgQZyTyEGcFYFxI-PwQ1-11" target="xgQZyTyEGcFYFxI-PwQ1-13">
          <mxGeometry relative="1" as="geometry" />
        </mxCell>
        <mxCell id="xgQZyTyEGcFYFxI-PwQ1-18" value="" style="edgeStyle=orthogonalEdgeStyle;rounded=0;orthogonalLoop=1;jettySize=auto;html=1;" edge="1" parent="1" source="xgQZyTyEGcFYFxI-PwQ1-11" target="xgQZyTyEGcFYFxI-PwQ1-17">
          <mxGeometry relative="1" as="geometry" />
        </mxCell>
        <mxCell id="xgQZyTyEGcFYFxI-PwQ1-11" value="&lt;font style=&quot;font-size: 20px;&quot;&gt;cave[row][col]==&#39;X&#39;&lt;/font&gt;" style="rhombus;whiteSpace=wrap;html=1;" vertex="1" parent="1">
          <mxGeometry x="1516" y="904" width="287" height="80" as="geometry" />
        </mxCell>
        <mxCell id="xgQZyTyEGcFYFxI-PwQ1-25" style="edgeStyle=orthogonalEdgeStyle;rounded=0;orthogonalLoop=1;jettySize=auto;html=1;exitX=0.5;exitY=1;exitDx=0;exitDy=0;" edge="1" parent="1" source="xgQZyTyEGcFYFxI-PwQ1-13">
          <mxGeometry relative="1" as="geometry">
            <mxPoint x="1720" y="1510" as="targetPoint" />
            <Array as="points">
              <mxPoint x="1351" y="1510" />
              <mxPoint x="1651" y="1510" />
            </Array>
          </mxGeometry>
        </mxCell>
        <mxCell id="xgQZyTyEGcFYFxI-PwQ1-13" value="&lt;font style=&quot;font-size: 20px;&quot;&gt;emptyRow = row-1&lt;span style=&quot;white-space: pre;&quot;&gt;&#x9;&lt;/span&gt;&lt;/font&gt;" style="whiteSpace=wrap;html=1;" vertex="1" parent="1">
          <mxGeometry x="1241" y="1010" width="220" height="60" as="geometry" />
        </mxCell>
        <mxCell id="xgQZyTyEGcFYFxI-PwQ1-20" value="" style="edgeStyle=orthogonalEdgeStyle;rounded=0;orthogonalLoop=1;jettySize=auto;html=1;" edge="1" parent="1" source="xgQZyTyEGcFYFxI-PwQ1-17" target="xgQZyTyEGcFYFxI-PwQ1-19">
          <mxGeometry relative="1" as="geometry" />
        </mxCell>
        <mxCell id="xgQZyTyEGcFYFxI-PwQ1-28" style="edgeStyle=orthogonalEdgeStyle;rounded=0;orthogonalLoop=1;jettySize=auto;html=1;exitX=1;exitY=0.5;exitDx=0;exitDy=0;" edge="1" parent="1" source="xgQZyTyEGcFYFxI-PwQ1-17">
          <mxGeometry relative="1" as="geometry">
            <mxPoint x="1720" y="1530" as="targetPoint" />
            <Array as="points">
              <mxPoint x="2280" y="1030" />
              <mxPoint x="2280" y="1530" />
            </Array>
          </mxGeometry>
        </mxCell>
        <mxCell id="xgQZyTyEGcFYFxI-PwQ1-17" value="&lt;font style=&quot;font-size: 20px;&quot;&gt;cave[row][col]==&#39;S&#39;&lt;/font&gt;" style="rhombus;whiteSpace=wrap;html=1;" vertex="1" parent="1">
          <mxGeometry x="1870" y="990" width="287" height="80" as="geometry" />
        </mxCell>
        <mxCell id="xgQZyTyEGcFYFxI-PwQ1-22" value="" style="edgeStyle=orthogonalEdgeStyle;rounded=0;orthogonalLoop=1;jettySize=auto;html=1;" edge="1" parent="1" source="xgQZyTyEGcFYFxI-PwQ1-19" target="xgQZyTyEGcFYFxI-PwQ1-21">
          <mxGeometry relative="1" as="geometry" />
        </mxCell>
        <mxCell id="xgQZyTyEGcFYFxI-PwQ1-19" value="&lt;span style=&quot;font-size: 20px;&quot;&gt;cave[row][col] = &#39;O&#39;&lt;/span&gt;" style="whiteSpace=wrap;html=1;" vertex="1" parent="1">
          <mxGeometry x="1590" y="1098" width="255" height="60" as="geometry" />
        </mxCell>
        <mxCell id="xgQZyTyEGcFYFxI-PwQ1-24" value="" style="edgeStyle=orthogonalEdgeStyle;rounded=0;orthogonalLoop=1;jettySize=auto;html=1;" edge="1" parent="1" source="xgQZyTyEGcFYFxI-PwQ1-21" target="xgQZyTyEGcFYFxI-PwQ1-23">
          <mxGeometry relative="1" as="geometry" />
        </mxCell>
        <mxCell id="xgQZyTyEGcFYFxI-PwQ1-21" value="&lt;span style=&quot;font-size: 20px;&quot;&gt;cave[row][emptyRow] = &#39;S&#39;&lt;/span&gt;" style="whiteSpace=wrap;html=1;" vertex="1" parent="1">
          <mxGeometry x="1590" y="1238" width="255" height="60" as="geometry" />
        </mxCell>
        <mxCell id="xgQZyTyEGcFYFxI-PwQ1-27" value="" style="edgeStyle=orthogonalEdgeStyle;rounded=0;orthogonalLoop=1;jettySize=auto;html=1;" edge="1" parent="1" source="xgQZyTyEGcFYFxI-PwQ1-23" target="xgQZyTyEGcFYFxI-PwQ1-26">
          <mxGeometry relative="1" as="geometry" />
        </mxCell>
        <mxCell id="xgQZyTyEGcFYFxI-PwQ1-23" value="&lt;span style=&quot;font-size: 20px;&quot;&gt;--emptyRow&lt;/span&gt;" style="whiteSpace=wrap;html=1;" vertex="1" parent="1">
          <mxGeometry x="1590" y="1378" width="255" height="60" as="geometry" />
        </mxCell>
        <mxCell id="xgQZyTyEGcFYFxI-PwQ1-29" style="edgeStyle=orthogonalEdgeStyle;rounded=0;orthogonalLoop=1;jettySize=auto;html=1;exitX=0;exitY=0.5;exitDx=0;exitDy=0;" edge="1" parent="1" source="xgQZyTyEGcFYFxI-PwQ1-26">
          <mxGeometry relative="1" as="geometry">
            <mxPoint x="1660" y="700" as="targetPoint" />
            <Array as="points">
              <mxPoint x="1150" y="1660" />
              <mxPoint x="1150" y="700" />
            </Array>
          </mxGeometry>
        </mxCell>
        <mxCell id="xgQZyTyEGcFYFxI-PwQ1-26" value="&lt;span style=&quot;font-size: 20px;&quot;&gt;row--&lt;/span&gt;" style="whiteSpace=wrap;html=1;" vertex="1" parent="1">
          <mxGeometry x="1590" y="1630" width="255" height="60" as="geometry" />
        </mxCell>
        <mxCell id="xgQZyTyEGcFYFxI-PwQ1-32" style="edgeStyle=orthogonalEdgeStyle;rounded=0;orthogonalLoop=1;jettySize=auto;html=1;exitX=0.5;exitY=0;exitDx=0;exitDy=0;" edge="1" parent="1" source="xgQZyTyEGcFYFxI-PwQ1-30">
          <mxGeometry relative="1" as="geometry">
            <mxPoint x="1660" y="218.33333333333334" as="targetPoint" />
            <Array as="points">
              <mxPoint x="1974" y="218" />
            </Array>
          </mxGeometry>
        </mxCell>
        <mxCell id="xgQZyTyEGcFYFxI-PwQ1-30" value="&lt;font style=&quot;font-size: 20px;&quot;&gt;col++&lt;/font&gt;" style="whiteSpace=wrap;html=1;" vertex="1" parent="1">
          <mxGeometry x="1914.25" y="754" width="120" height="60" as="geometry" />
        </mxCell>
      </root>
    </mxGraphModel>
  </diagram>
</mxfile>
